<svg xmlns="http://www.w3.org/2000/svg" width="44" height="43" fill="none"><path fill="#E36405" fill-rule="evenodd" d="M41.037 0c.727 0 1.235 0 1.624.042.87.092 1.2.408 1.296 1.266.042.38.043.877.043 1.588v37.208c0 .711 0 1.207-.043 1.588-.102.92-.373 1.168-1.296 1.266-.39.041-.897.042-1.624.042H2.963c-.702 0-1.2 0-1.583-.038-.938-.09-1.235-.355-1.337-1.27C0 41.312 0 40.815 0 40.104V2.896c0-.711 0-1.207.043-1.588C.138.452.47.134 1.339.042 1.729 0 2.236 0 2.963 0zM30.266 8.318l-16.86 4.022c-.429.109-.53.237-.53.645v16.898c0 .49.058.638.53.752l16.86 4.022c.66.15.857.024.857-.647V8.966c0-.587-.174-.833-.857-.648" clip-rule="evenodd"/></svg>