<svg width="88" height="58" viewBox="0 0 88 58" fill="none" xmlns="http://www.w3.org/2000/svg">
<path d="M8.784 13H0.96V2.328H8.784V4.728H3.712V6.392H8.672V8.792H3.712V10.6H8.784V13ZM22.6699 13H20.2219V8.296C20.2219 7.60267 19.8805 7.256 19.1979 7.256C18.6432 7.256 18.1792 7.50667 17.8059 8.008V13H15.3419V8.296C15.3419 7.60267 15.0005 7.256 14.3179 7.256C13.8059 7.256 13.3472 7.50667 12.9419 8.008V13H10.4779V5.272H12.9419V6.216C13.1445 5.94933 13.4805 5.69333 13.9499 5.448C14.4192 5.20267 14.9312 5.08 15.4859 5.08C16.6272 5.08 17.3579 5.53867 17.6779 6.456C17.9232 6.08267 18.2859 5.76267 18.7659 5.496C19.2565 5.21867 19.7845 5.08 20.3499 5.08C21.0859 5.08 21.6565 5.27733 22.0619 5.672C22.4672 6.056 22.6699 6.632 22.6699 7.4V13ZM28.3499 13.192C27.1339 13.192 26.1259 12.824 25.3259 12.088C24.5259 11.3413 24.1259 10.3547 24.1259 9.128C24.1259 7.98667 24.5099 7.02667 25.2779 6.248C26.0565 5.46933 27.0432 5.08 28.2379 5.08C29.4005 5.08 30.3499 5.47467 31.0859 6.264C31.8219 7.04267 32.1899 8.08267 32.1899 9.384V9.912H26.6859C26.7605 10.296 26.9685 10.6213 27.3099 10.888C27.6512 11.1547 28.0885 11.288 28.6219 11.288C28.9205 11.288 29.2619 11.2293 29.6459 11.112C30.0405 10.984 30.3392 10.824 30.5419 10.632L31.5819 12.168C31.2085 12.4987 30.7285 12.7547 30.1419 12.936C29.5659 13.1067 28.9685 13.192 28.3499 13.192ZM29.8379 8.312C29.7952 7.97067 29.6459 7.66667 29.3899 7.4C29.1339 7.12267 28.7499 6.984 28.2379 6.984C27.7579 6.984 27.3899 7.11733 27.1339 7.384C26.8779 7.65067 26.7179 7.96 26.6539 8.312H29.8379ZM36.0275 13H33.5635V5.272H36.0275V6.216C36.2942 5.896 36.6515 5.624 37.0995 5.4C37.5475 5.176 37.9955 5.064 38.4435 5.064V7.432C38.2515 7.38933 38.0488 7.368 37.8355 7.368C37.4942 7.368 37.1422 7.43733 36.7795 7.576C36.4275 7.704 36.1768 7.86933 36.0275 8.072V13ZM42.9395 16.136C41.5955 16.136 40.4542 15.752 39.5155 14.984L40.5875 13.224C41.1422 13.8213 41.9262 14.12 42.9395 14.12C43.4515 14.12 43.9048 13.9867 44.2995 13.72C44.7048 13.4533 44.9075 12.9947 44.9075 12.344V11.752C44.2675 12.4987 43.5048 12.872 42.6195 12.872C41.6275 12.872 40.8115 12.536 40.1715 11.864C39.5315 11.1813 39.2115 10.216 39.2115 8.968C39.2115 7.73067 39.5262 6.776 40.1555 6.104C40.7955 5.42133 41.6168 5.08 42.6195 5.08C43.5475 5.08 44.3102 5.448 44.9075 6.184V5.272H47.3555V12.312C47.3555 12.92 47.2595 13.4533 47.0675 13.912C46.8862 14.3813 46.6515 14.7493 46.3635 15.016C46.0755 15.2933 45.7288 15.5173 45.3235 15.688C44.9182 15.8693 44.5235 15.9867 44.1395 16.04C43.7555 16.104 43.3555 16.136 42.9395 16.136ZM43.4355 10.696C43.7022 10.696 43.9742 10.632 44.2515 10.504C44.5395 10.376 44.7582 10.2107 44.9075 10.008V7.944C44.7582 7.74133 44.5395 7.576 44.2515 7.448C43.9742 7.32 43.7022 7.256 43.4355 7.256C42.9342 7.256 42.5235 7.40533 42.2035 7.704C41.8942 8.00267 41.7395 8.424 41.7395 8.968C41.7395 9.52267 41.8942 9.94933 42.2035 10.248C42.5235 10.5467 42.9342 10.696 43.4355 10.696ZM53.033 13.192C51.817 13.192 50.809 12.824 50.009 12.088C49.209 11.3413 48.809 10.3547 48.809 9.128C48.809 7.98667 49.193 7.02667 49.961 6.248C50.7397 5.46933 51.7263 5.08 52.921 5.08C54.0837 5.08 55.033 5.47467 55.769 6.264C56.505 7.04267 56.873 8.08267 56.873 9.384V9.912H51.369C51.4437 10.296 51.6517 10.6213 51.993 10.888C52.3343 11.1547 52.7717 11.288 53.305 11.288C53.6037 11.288 53.945 11.2293 54.329 11.112C54.7237 10.984 55.0223 10.824 55.225 10.632L56.265 12.168C55.8917 12.4987 55.4117 12.7547 54.825 12.936C54.249 13.1067 53.6517 13.192 53.033 13.192ZM54.521 8.312C54.4783 7.97067 54.329 7.66667 54.073 7.4C53.817 7.12267 53.433 6.984 52.921 6.984C52.441 6.984 52.073 7.11733 51.817 7.384C51.561 7.65067 51.401 7.96 51.337 8.312H54.521ZM65.9426 13H63.4786V8.536C63.4786 7.68267 63.0573 7.256 62.2146 7.256C61.6173 7.256 61.116 7.50667 60.7106 8.008V13H58.2466V5.272H60.7106V6.216C61.3613 5.45867 62.252 5.08 63.3826 5.08C64.236 5.08 64.876 5.304 65.3026 5.752C65.7293 6.18933 65.9426 6.78133 65.9426 7.528V13ZM71.603 13.192C70.387 13.192 69.379 12.8187 68.579 12.072C67.779 11.3147 67.379 10.3333 67.379 9.128C67.379 7.93333 67.779 6.96267 68.579 6.216C69.379 5.45867 70.387 5.08 71.603 5.08C72.371 5.08 73.0217 5.21867 73.555 5.496C74.099 5.77333 74.5043 6.10933 74.771 6.504L73.171 7.992C72.8403 7.50133 72.355 7.256 71.715 7.256C71.1923 7.256 70.7603 7.42667 70.419 7.768C70.0777 8.09867 69.907 8.552 69.907 9.128C69.907 9.704 70.0777 10.1627 70.419 10.504C70.7603 10.8453 71.1923 11.016 71.715 11.016C72.3337 11.016 72.819 10.7653 73.171 10.264L74.771 11.768C74.5043 12.1627 74.099 12.4987 73.555 12.776C73.0217 13.0533 72.371 13.192 71.603 13.192ZM75.891 16.008L76.243 13.816C76.4137 13.912 76.6163 13.96 76.851 13.96C77.427 13.96 77.7737 13.816 77.891 13.528L78.067 13.112L74.995 5.272H77.587L79.331 10.168L81.091 5.272H83.699L80.211 14.104C79.923 14.8613 79.5123 15.384 78.979 15.672C78.4457 15.96 77.7683 16.1147 76.947 16.136C76.5203 16.136 76.1683 16.0933 75.891 16.008ZM6.192 29.192C4.53867 29.192 3.16267 28.68 2.064 27.656C0.965333 26.6213 0.416 25.2933 0.416 23.672C0.416 22.04 0.96 20.712 2.048 19.688C3.14667 18.664 4.528 18.152 6.192 18.152C8.336 18.152 9.888 19.1067 10.848 21.016L8.48 22.136C8.29867 21.6987 7.99467 21.3307 7.568 21.032C7.152 20.7333 6.69333 20.584 6.192 20.584C5.328 20.584 4.61333 20.8827 4.048 21.48C3.49333 22.0667 3.216 22.7973 3.216 23.672C3.216 24.5467 3.49333 25.2827 4.048 25.88C4.61333 26.4667 5.328 26.76 6.192 26.76C6.69333 26.76 7.152 26.6107 7.568 26.312C7.99467 26.0133 8.29867 25.6453 8.48 25.208L10.848 26.328C10.4427 27.1387 9.856 27.8213 9.088 28.376C8.33067 28.92 7.36533 29.192 6.192 29.192ZM15.8301 29.192C14.5608 29.192 13.5421 28.7973 12.7741 28.008C12.0061 27.2187 11.6221 26.2587 11.6221 25.128C11.6221 23.9973 12.0061 23.0427 12.7741 22.264C13.5421 21.4747 14.5608 21.08 15.8301 21.08C17.1101 21.08 18.1341 21.4747 18.9021 22.264C19.6701 23.0427 20.0541 23.9973 20.0541 25.128C20.0541 26.2587 19.6701 27.2187 18.9021 28.008C18.1341 28.7973 17.1101 29.192 15.8301 29.192ZM14.5981 26.488C14.8968 26.84 15.3075 27.016 15.8301 27.016C16.3528 27.016 16.7635 26.84 17.0621 26.488C17.3715 26.1253 17.5261 25.672 17.5261 25.128C17.5261 24.5947 17.3715 24.152 17.0621 23.8C16.7635 23.4373 16.3528 23.256 15.8301 23.256C15.3075 23.256 14.8968 23.4373 14.5981 23.8C14.3101 24.152 14.1661 24.5947 14.1661 25.128C14.1661 25.672 14.3101 26.1253 14.5981 26.488ZM33.7049 29H31.2569V24.296C31.2569 23.6027 30.9155 23.256 30.2329 23.256C29.6782 23.256 29.2142 23.5067 28.8409 24.008V29H26.3769V24.296C26.3769 23.6027 26.0355 23.256 25.3529 23.256C24.8409 23.256 24.3822 23.5067 23.9769 24.008V29H21.5129V21.272H23.9769V22.216C24.1795 21.9493 24.5155 21.6933 24.9849 21.448C25.4542 21.2027 25.9662 21.08 26.5209 21.08C27.6622 21.08 28.3929 21.5387 28.7129 22.456C28.9582 22.0827 29.3209 21.7627 29.8009 21.496C30.2915 21.2187 30.8195 21.08 31.3849 21.08C32.1209 21.08 32.6915 21.2773 33.0969 21.672C33.5022 22.056 33.7049 22.632 33.7049 23.4V29ZM47.8649 29H45.4169V24.296C45.4169 23.6027 45.0755 23.256 44.3929 23.256C43.8382 23.256 43.3742 23.5067 43.0009 24.008V29H40.5369V24.296C40.5369 23.6027 40.1955 23.256 39.5129 23.256C39.0009 23.256 38.5422 23.5067 38.1369 24.008V29H35.6729V21.272H38.1369V22.216C38.3395 21.9493 38.6755 21.6933 39.1449 21.448C39.6142 21.2027 40.1262 21.08 40.6809 21.08C41.8222 21.08 42.5529 21.5387 42.8729 22.456C43.1182 22.0827 43.4809 21.7627 43.9609 21.496C44.4515 21.2187 44.9795 21.08 45.5449 21.08C46.2809 21.08 46.8515 21.2773 47.2569 21.672C47.6622 22.056 47.8649 22.632 47.8649 23.4V29ZM52.0569 20.168C51.7902 20.4453 51.4595 20.584 51.0649 20.584C50.6702 20.584 50.3342 20.4453 50.0569 20.168C49.7902 19.8907 49.6569 19.5547 49.6569 19.16C49.6569 18.7653 49.7902 18.4347 50.0569 18.168C50.3342 17.8907 50.6702 17.752 51.0649 17.752C51.4595 17.752 51.7902 17.8907 52.0569 18.168C52.3342 18.4347 52.4729 18.7653 52.4729 19.16C52.4729 19.5547 52.3342 19.8907 52.0569 20.168ZM52.2969 29H49.8329V21.272H52.2969V29ZM57.1709 29.192C56.3815 29.192 55.7789 29 55.3629 28.616C54.9575 28.232 54.7549 27.6667 54.7549 26.92V23.416H53.4749V21.272H54.7549V19.16H57.2029V21.272H58.7709V23.416H57.2029V26.232C57.2029 26.4667 57.2615 26.6587 57.3789 26.808C57.5069 26.9467 57.6775 27.016 57.8909 27.016C58.2002 27.016 58.4082 26.952 58.5149 26.824L58.9949 28.68C58.6322 29.0213 58.0242 29.192 57.1709 29.192ZM63.0965 29.192C62.3072 29.192 61.7045 29 61.2885 28.616C60.8832 28.232 60.6805 27.6667 60.6805 26.92V23.416H59.4005V21.272H60.6805V19.16H63.1285V21.272H64.6965V23.416H63.1285V26.232C63.1285 26.4667 63.1872 26.6587 63.3045 26.808C63.4325 26.9467 63.6032 27.016 63.8165 27.016C64.1258 27.016 64.3338 26.952 64.4405 26.824L64.9205 28.68C64.5578 29.0213 63.9498 29.192 63.0965 29.192ZM69.8061 29.192C68.5901 29.192 67.5821 28.824 66.7821 28.088C65.9821 27.3413 65.5821 26.3547 65.5821 25.128C65.5821 23.9867 65.9661 23.0267 66.7341 22.248C67.5128 21.4693 68.4995 21.08 69.6941 21.08C70.8568 21.08 71.8061 21.4747 72.5421 22.264C73.2781 23.0427 73.6461 24.0827 73.6461 25.384V25.912H68.1421C68.2168 26.296 68.4248 26.6213 68.7661 26.888C69.1075 27.1547 69.5448 27.288 70.0781 27.288C70.3768 27.288 70.7181 27.2293 71.1021 27.112C71.4968 26.984 71.7955 26.824 71.9981 26.632L73.0381 28.168C72.6648 28.4987 72.1848 28.7547 71.5981 28.936C71.0221 29.1067 70.4248 29.192 69.8061 29.192ZM71.2941 24.312C71.2515 23.9707 71.1021 23.6667 70.8461 23.4C70.5901 23.1227 70.2061 22.984 69.6941 22.984C69.2141 22.984 68.8461 23.1173 68.5901 23.384C68.3341 23.6507 68.1741 23.96 68.1101 24.312H71.2941ZM78.7317 29.192C77.5157 29.192 76.5077 28.824 75.7077 28.088C74.9077 27.3413 74.5077 26.3547 74.5077 25.128C74.5077 23.9867 74.8917 23.0267 75.6597 22.248C76.4384 21.4693 77.4251 21.08 78.6197 21.08C79.7824 21.08 80.7317 21.4747 81.4677 22.264C82.2037 23.0427 82.5717 24.0827 82.5717 25.384V25.912H77.0677C77.1424 26.296 77.3504 26.6213 77.6917 26.888C78.0331 27.1547 78.4704 27.288 79.0037 27.288C79.3024 27.288 79.6437 27.2293 80.0277 27.112C80.4224 26.984 80.7211 26.824 80.9237 26.632L81.9637 28.168C81.5904 28.4987 81.1104 28.7547 80.5237 28.936C79.9477 29.1067 79.3504 29.192 78.7317 29.192ZM80.2197 24.312C80.1771 23.9707 80.0277 23.6667 79.7717 23.4C79.5157 23.1227 79.1317 22.984 78.6197 22.984C78.1397 22.984 77.7717 23.1173 77.5157 23.384C77.2597 23.6507 77.0997 23.96 77.0357 24.312H80.2197Z" fill="#63A568"/>
<path d="M3.42 42.144C2.588 42.144 1.916 41.852 1.404 41.268C0.892 40.684 0.636 39.96 0.636 39.096C0.636 38.232 0.892 37.512 1.404 36.936C1.916 36.352 2.588 36.06 3.42 36.06C4.26 36.06 4.936 36.352 5.448 36.936C5.96 37.512 6.216 38.232 6.216 39.096C6.216 39.96 5.96 40.684 5.448 41.268C4.936 41.852 4.26 42.144 3.42 42.144ZM3.42 41.58C4.076 41.58 4.592 41.34 4.968 40.86C5.352 40.372 5.544 39.784 5.544 39.096C5.544 38.416 5.352 37.836 4.968 37.356C4.592 36.868 4.076 36.624 3.42 36.624C2.772 36.624 2.256 36.868 1.872 37.356C1.496 37.836 1.308 38.416 1.308 39.096C1.308 39.776 1.496 40.36 1.872 40.848C2.256 41.336 2.772 41.58 3.42 41.58ZM8.65547 42H8.03147V36.756H7.07147V36.204H8.03147V35.676C8.03147 35.116 8.17147 34.676 8.45147 34.356C8.73147 34.036 9.11547 33.876 9.60347 33.876C10.0275 33.876 10.3955 34.012 10.7075 34.284L10.4075 34.716C10.1915 34.516 9.94347 34.416 9.66347 34.416C8.99147 34.416 8.65547 34.836 8.65547 35.676V36.204H9.83147V36.756H8.65547V42ZM17.2527 42.144C16.2447 42.144 15.4727 41.86 14.9367 41.292C14.4007 40.716 14.1327 39.928 14.1327 38.928V33.996H14.8287V38.916C14.8287 39.732 15.0367 40.372 15.4527 40.836C15.8767 41.292 16.4767 41.52 17.2527 41.52C18.0367 41.52 18.6367 41.292 19.0527 40.836C19.4687 40.38 19.6767 39.74 19.6767 38.916V33.996H20.3727V38.928C20.3727 39.936 20.1047 40.724 19.5687 41.292C19.0407 41.86 18.2687 42.144 17.2527 42.144ZM26.8713 42H26.2473V38.076C26.2473 37.548 26.1273 37.176 25.8873 36.96C25.6473 36.736 25.2993 36.624 24.8433 36.624C24.4833 36.624 24.1273 36.72 23.7753 36.912C23.4233 37.104 23.1513 37.34 22.9593 37.62V42H22.3353V36.204H22.9593V37.08C23.1913 36.808 23.4993 36.572 23.8833 36.372C24.2673 36.164 24.6553 36.06 25.0473 36.06C26.2633 36.06 26.8713 36.688 26.8713 37.944V42ZM29.1278 35.292C28.9998 35.292 28.8878 35.244 28.7918 35.148C28.6958 35.052 28.6478 34.94 28.6478 34.812C28.6478 34.684 28.6958 34.576 28.7918 34.488C28.8878 34.392 28.9998 34.344 29.1278 34.344C29.2638 34.344 29.3758 34.392 29.4638 34.488C29.5598 34.576 29.6077 34.684 29.6077 34.812C29.6077 34.948 29.5598 35.064 29.4638 35.16C29.3758 35.248 29.2638 35.292 29.1278 35.292ZM29.4398 42H28.8158V36.204H29.4398V42ZM33.6502 42H32.9422L30.4942 36.204H31.1902L33.3022 41.268L35.3902 36.204H36.0982L33.6502 42ZM39.7275 42.144C38.8795 42.144 38.1835 41.86 37.6395 41.292C37.0955 40.724 36.8235 39.992 36.8235 39.096C36.8235 38.248 37.0875 37.532 37.6155 36.948C38.1515 36.356 38.8195 36.06 39.6195 36.06C40.4675 36.06 41.1355 36.356 41.6235 36.948C42.1115 37.532 42.3555 38.26 42.3555 39.132V39.3H37.5075C37.5395 39.956 37.7595 40.504 38.1675 40.944C38.5755 41.384 39.1115 41.604 39.7755 41.604C40.5435 41.604 41.1755 41.336 41.6715 40.8L41.9955 41.208C41.3955 41.832 40.6395 42.144 39.7275 42.144ZM41.7195 38.808C41.7115 38.248 41.5235 37.74 41.1555 37.284C40.7955 36.828 40.2795 36.6 39.6075 36.6C38.9755 36.6 38.4715 36.828 38.0955 37.284C37.7275 37.732 37.5315 38.24 37.5075 38.808H41.7195ZM44.5921 42H43.9681V36.204H44.5921V37.2C45.1601 36.456 45.8121 36.084 46.5481 36.084V36.768C46.4761 36.752 46.3721 36.744 46.2361 36.744C45.9481 36.744 45.6361 36.852 45.3001 37.068C44.9641 37.284 44.7281 37.52 44.5921 37.776V42ZM49.5047 42.144C48.5687 42.144 47.8247 41.84 47.2727 41.232L47.6447 40.764C47.8447 41.012 48.1087 41.216 48.4367 41.376C48.7647 41.536 49.1247 41.616 49.5167 41.616C49.9887 41.616 50.3647 41.508 50.6447 41.292C50.9247 41.068 51.0647 40.784 51.0647 40.44C51.0647 40.152 50.9367 39.924 50.6807 39.756C50.4327 39.58 50.1287 39.452 49.7687 39.372C49.4167 39.284 49.0607 39.192 48.7007 39.096C48.3407 38.992 48.0327 38.824 47.7767 38.592C47.5287 38.36 47.4047 38.052 47.4047 37.668C47.4047 37.212 47.5887 36.832 47.9567 36.528C48.3327 36.216 48.8367 36.06 49.4687 36.06C50.3407 36.06 51.0327 36.344 51.5447 36.912L51.1967 37.356C50.8207 36.844 50.2447 36.588 49.4687 36.588C49.0287 36.588 48.6767 36.688 48.4127 36.888C48.1487 37.088 48.0167 37.34 48.0167 37.644C48.0167 37.908 48.1407 38.116 48.3887 38.268C48.6447 38.42 48.9487 38.54 49.3007 38.628C49.6607 38.708 50.0207 38.8 50.3807 38.904C50.7407 39.008 51.0447 39.188 51.2927 39.444C51.5487 39.7 51.6767 40.032 51.6767 40.44C51.6767 40.936 51.4887 41.344 51.1127 41.664C50.7367 41.984 50.2007 42.144 49.5047 42.144ZM53.5965 35.292C53.4685 35.292 53.3565 35.244 53.2605 35.148C53.1645 35.052 53.1165 34.94 53.1165 34.812C53.1165 34.684 53.1645 34.576 53.2605 34.488C53.3565 34.392 53.4685 34.344 53.5965 34.344C53.7325 34.344 53.8445 34.392 53.9325 34.488C54.0285 34.576 54.0765 34.684 54.0765 34.812C54.0765 34.948 54.0285 35.064 53.9325 35.16C53.8445 35.248 53.7325 35.292 53.5965 35.292ZM53.9085 42H53.2845V36.204H53.9085V42ZM57.1109 42.144C56.3509 42.144 55.9709 41.724 55.9709 40.884V36.756H55.0109V36.204H55.9709V34.62H56.6069V36.204H57.7829V36.756H56.6069V40.788C56.6069 41.316 56.8069 41.58 57.2069 41.58C57.4709 41.58 57.6869 41.488 57.8549 41.304L58.0949 41.784C57.8389 42.024 57.5109 42.144 57.1109 42.144ZM59.4676 35.292C59.3396 35.292 59.2276 35.244 59.1316 35.148C59.0356 35.052 58.9876 34.94 58.9876 34.812C58.9876 34.684 59.0356 34.576 59.1316 34.488C59.2276 34.392 59.3396 34.344 59.4676 34.344C59.6036 34.344 59.7156 34.392 59.8036 34.488C59.8996 34.576 59.9476 34.684 59.9476 34.812C59.9476 34.948 59.8996 35.064 59.8036 35.16C59.7156 35.248 59.6036 35.292 59.4676 35.292ZM59.7796 42H59.1556V36.204H59.7796V42ZM64.29 42.144C63.442 42.144 62.746 41.86 62.202 41.292C61.658 40.724 61.386 39.992 61.386 39.096C61.386 38.248 61.65 37.532 62.178 36.948C62.714 36.356 63.382 36.06 64.182 36.06C65.03 36.06 65.698 36.356 66.186 36.948C66.674 37.532 66.918 38.26 66.918 39.132V39.3H62.07C62.102 39.956 62.322 40.504 62.73 40.944C63.138 41.384 63.674 41.604 64.338 41.604C65.106 41.604 65.738 41.336 66.234 40.8L66.558 41.208C65.958 41.832 65.202 42.144 64.29 42.144ZM66.282 38.808C66.274 38.248 66.086 37.74 65.718 37.284C65.358 36.828 64.842 36.6 64.17 36.6C63.538 36.6 63.034 36.828 62.658 37.284C62.29 37.732 62.094 38.24 62.07 38.808H66.282ZM70.2586 42.144C69.3226 42.144 68.5786 41.84 68.0266 41.232L68.3986 40.764C68.5986 41.012 68.8626 41.216 69.1906 41.376C69.5186 41.536 69.8786 41.616 70.2706 41.616C70.7426 41.616 71.1186 41.508 71.3986 41.292C71.6786 41.068 71.8186 40.784 71.8186 40.44C71.8186 40.152 71.6906 39.924 71.4346 39.756C71.1866 39.58 70.8826 39.452 70.5226 39.372C70.1706 39.284 69.8146 39.192 69.4546 39.096C69.0946 38.992 68.7866 38.824 68.5306 38.592C68.2826 38.36 68.1586 38.052 68.1586 37.668C68.1586 37.212 68.3426 36.832 68.7106 36.528C69.0866 36.216 69.5906 36.06 70.2226 36.06C71.0946 36.06 71.7866 36.344 72.2986 36.912L71.9506 37.356C71.5746 36.844 70.9986 36.588 70.2226 36.588C69.7826 36.588 69.4306 36.688 69.1666 36.888C68.9026 37.088 68.7706 37.34 68.7706 37.644C68.7706 37.908 68.8946 38.116 69.1426 38.268C69.3986 38.42 69.7026 38.54 70.0546 38.628C70.4146 38.708 70.7746 38.8 71.1346 38.904C71.4946 39.008 71.7986 39.188 72.0466 39.444C72.3026 39.7 72.4306 40.032 72.4306 40.44C72.4306 40.936 72.2426 41.344 71.8666 41.664C71.4906 41.984 70.9546 42.144 70.2586 42.144ZM77.4559 35.292C77.3279 35.292 77.2159 35.244 77.1199 35.148C77.0239 35.052 76.9759 34.94 76.9759 34.812C76.9759 34.684 77.0239 34.576 77.1199 34.488C77.2159 34.392 77.3279 34.344 77.4559 34.344C77.5919 34.344 77.7039 34.392 77.7919 34.488C77.8879 34.576 77.9359 34.684 77.9359 34.812C77.9359 34.948 77.8879 35.064 77.7919 35.16C77.7039 35.248 77.5919 35.292 77.4559 35.292ZM77.7679 42H77.1439V36.204H77.7679V42ZM84.2463 42H83.6223V38.076C83.6223 37.548 83.5023 37.176 83.2623 36.96C83.0223 36.736 82.6743 36.624 82.2183 36.624C81.8583 36.624 81.5023 36.72 81.1503 36.912C80.7983 37.104 80.5263 37.34 80.3343 37.62V42H79.7103V36.204H80.3343V37.08C80.5663 36.808 80.8743 36.572 81.2583 36.372C81.6423 36.164 82.0303 36.06 82.4223 36.06C83.6383 36.06 84.2463 36.688 84.2463 37.944V42ZM4.752 55.156C3.608 55.156 2.644 54.768 1.86 53.992C1.084 53.216 0.696 52.22 0.696 51.004C0.696 49.788 1.084 48.796 1.86 48.028C2.644 47.252 3.608 46.864 4.752 46.864C5.968 46.864 6.972 47.32 7.764 48.232L7.248 48.604C6.96 48.26 6.596 47.988 6.156 47.788C5.724 47.588 5.256 47.488 4.752 47.488C3.8 47.488 3.004 47.816 2.364 48.472C1.732 49.128 1.416 49.972 1.416 51.004C1.416 52.028 1.732 52.872 2.364 53.536C3.004 54.2 3.8 54.532 4.752 54.532C5.24 54.532 5.688 54.436 6.096 54.244C6.504 54.052 6.84 53.824 7.104 53.56V51.64H4.08V51.028H7.788V53.824C6.996 54.712 5.984 55.156 4.752 55.156ZM13.8113 55H13.1873V54.316C12.6833 54.868 12.0273 55.144 11.2193 55.144C10.6833 55.144 10.2113 54.972 9.80325 54.628C9.39525 54.276 9.19125 53.804 9.19125 53.212C9.19125 52.612 9.39125 52.144 9.79125 51.808C10.1993 51.464 10.6753 51.292 11.2193 51.292C12.0353 51.292 12.6913 51.568 13.1873 52.12V50.944C13.1873 50.528 13.0393 50.204 12.7433 49.972C12.4473 49.732 12.0753 49.612 11.6273 49.612C10.9153 49.612 10.3113 49.896 9.81525 50.464L9.46725 50.032C10.0673 49.384 10.8113 49.06 11.6992 49.06C12.3233 49.06 12.8313 49.216 13.2233 49.528C13.6153 49.84 13.8113 50.304 13.8113 50.92V55ZM11.4353 54.652C12.1953 54.652 12.7793 54.388 13.1873 53.86V52.588C12.7713 52.052 12.1873 51.784 11.4353 51.784C10.9633 51.784 10.5793 51.92 10.2833 52.192C9.99525 52.464 9.85125 52.808 9.85125 53.224C9.85125 53.64 9.99525 53.984 10.2833 54.256C10.5793 54.52 10.9633 54.652 11.4353 54.652ZM19.7451 55H15.4611V54.484L18.8931 49.756H15.4611V49.204H19.6971V49.708L16.2291 54.448H19.7451V55ZM25.6941 55H25.0701V54.316C24.5661 54.868 23.9101 55.144 23.1021 55.144C22.5661 55.144 22.0941 54.972 21.6861 54.628C21.2781 54.276 21.0741 53.804 21.0741 53.212C21.0741 52.612 21.2741 52.144 21.6741 51.808C22.0821 51.464 22.5581 51.292 23.1021 51.292C23.9181 51.292 24.5741 51.568 25.0701 52.12V50.944C25.0701 50.528 24.9221 50.204 24.6261 49.972C24.3301 49.732 23.9581 49.612 23.5101 49.612C22.7981 49.612 22.1941 49.896 21.6981 50.464L21.3501 50.032C21.9501 49.384 22.6941 49.06 23.5821 49.06C24.2061 49.06 24.7141 49.216 25.1061 49.528C25.4981 49.84 25.6941 50.304 25.6941 50.92V55ZM23.3181 54.652C24.0781 54.652 24.6621 54.388 25.0701 53.86V52.588C24.6541 52.052 24.0701 51.784 23.3181 51.784C22.8461 51.784 22.4621 51.92 22.1661 52.192C21.8781 52.464 21.7341 52.808 21.7341 53.224C21.7341 53.64 21.8781 53.984 22.1661 54.256C22.4621 54.52 22.8461 54.652 23.3181 54.652Z" fill="#181D27"/>
</svg>
